<svg xmlns="http://www.w3.org/2000/svg" width="144" height="144" viewBox="0 0 144 144" version="1.1" style="margin-top:5px; margin-left:-10px"><path d="M 37.374 34.646 C 33.205 35.549, 30.658 39.582, 30.192 46.016 C 29.450 56.274, 33.138 61, 41.885 61 C 47.488 61, 51 59.468, 51 57.025 C 51 55.292, 50.352 55, 46.500 55 C 40.938 55, 38 52.474, 38 47.691 C 38 42.904, 39.790 41.141, 45 40.797 C 49.079 40.528, 49.530 40.243, 49.816 37.750 C 50.058 35.646, 49.706 34.997, 48.316 34.989 C 47.317 34.983, 44.925 34.800, 43 34.582 C 41.075 34.364, 38.543 34.393, 37.374 34.646 M 63.295 35.056 C 58.403 36.549, 57 39.359, 57 47.667 C 57 57.300, 59.164 60.107, 67.081 60.741 C 74.397 61.327, 77.735 59.880, 79.653 55.289 C 81.973 49.736, 81.090 40.635, 77.924 37.470 C 75.103 34.649, 68.306 33.527, 63.295 35.056 M 101.273 35.442 C 99.360 36.297, 97.809 36.500, 97.464 35.942 C 97.144 35.424, 95.334 35, 93.441 35 L 90 35 90 48.057 L 90 61.115 94.250 60.807 L 98.500 60.500 99 51.500 C 99.475 42.941, 99.617 42.483, 101.887 42.163 C 105.292 41.681, 105.967 43.427, 105.985 52.750 L 106 61 110 61 L 114 61 114 50.111 C 114 41.210, 113.680 38.837, 112.250 37.114 C 109.957 34.353, 105.299 33.643, 101.273 35.442 M 66.238 42.162 C 64.945 43.455, 64.561 49.692, 65.607 52.418 C 65.941 53.288, 67.305 54, 68.639 54 C 71.674 54, 72.801 51.249, 72.055 45.660 C 71.631 42.484, 71.024 41.432, 69.488 41.212 C 68.382 41.053, 66.919 41.481, 66.238 42.162 M 57.490 74.910 C 61.125 80.511, 64.336 85.712, 64.626 86.467 C 64.915 87.222, 61.958 92.601, 58.054 98.420 C 50.461 109.737, 50.473 109.885, 58.807 107.859 C 64.747 106.415, 65.402 105.822, 72.353 95.589 L 78.095 87.136 71.485 77.590 C 64.542 67.562, 64.337 67.417, 54.136 65.377 L 50.882 64.726 57.490 74.910 M 77.068 74.904 C 75.931 76.502, 75 78.120, 75 78.500 C 75 79.637, 79.072 85, 79.935 85 C 80.659 85, 81.853 83.371, 87.446 74.750 L 89.230 72 84.183 72 C 79.754 72, 78.883 72.355, 77.068 74.904 M 35.020 76.227 C 33.656 76.949, 31.975 78.656, 31.284 80.020 C 29.669 83.213, 29.663 93.776, 31.276 96.963 C 33.097 100.562, 38.744 102.387, 45.460 101.548 C 50.364 100.936, 51 100.594, 51 98.568 C 51 96.522, 50.401 96.218, 45.344 95.696 C 40.055 95.150, 37.477 93.654, 38.625 91.798 C 38.896 91.359, 41.272 91, 43.904 91 C 49.845 91, 52 88.957, 52 83.326 C 52 80.570, 51.368 78.738, 49.985 77.486 C 47.422 75.167, 38.451 74.413, 35.020 76.227 M 96.354 75.692 C 92.438 76.458, 90.616 79.665, 90.177 86.567 C 89.927 90.491, 90.271 94.240, 91.055 96.133 C 94.087 103.452, 108.876 104.008, 112.530 96.941 C 113.339 95.378, 114 91.580, 114 88.500 C 114 85.420, 113.339 81.622, 112.530 80.059 C 110.364 75.870, 104.096 74.178, 96.354 75.692 M 39.011 82.487 C 36.535 85.471, 39.341 87.958, 43.418 86.393 C 45.464 85.608, 45.464 82.392, 43.418 81.607 C 41.072 80.707, 40.372 80.847, 39.011 82.487 M 99.200 83.200 C 97.646 84.754, 97.646 92.246, 99.200 93.800 C 102.253 96.853, 106 93.933, 106 88.500 C 106 83.067, 102.253 80.147, 99.200 83.200 M 77.068 91.904 C 74.470 95.554, 74.474 95.621, 77.551 99.656 C 79.770 102.565, 80.681 103, 84.551 103 C 86.998 103, 89 102.665, 89 102.256 C 89 101.119, 80.612 89, 79.826 89 C 79.447 89, 78.206 90.307, 77.068 91.904" stroke="none" fill="#215d8f" fill-rule="evenodd"/><path d="M 0 72.007 L 0 144.013 72.250 143.757 L 144.500 143.500 144.757 71.750 L 145.013 0 72.507 0 L 0 0 0 72.007 M 0.474 72.500 C 0.474 112.100, 0.598 128.154, 0.750 108.176 C 0.901 88.198, 0.901 55.798, 0.750 36.176 C 0.598 16.554, 0.474 32.900, 0.474 72.500 M 37.374 34.646 C 33.205 35.549, 30.658 39.582, 30.192 46.016 C 29.450 56.274, 33.138 61, 41.885 61 C 47.488 61, 51 59.468, 51 57.025 C 51 55.292, 50.352 55, 46.500 55 C 40.938 55, 38 52.474, 38 47.691 C 38 42.904, 39.790 41.141, 45 40.797 C 49.079 40.528, 49.530 40.243, 49.816 37.750 C 50.058 35.646, 49.706 34.997, 48.316 34.989 C 47.317 34.983, 44.925 34.800, 43 34.582 C 41.075 34.364, 38.543 34.393, 37.374 34.646 M 63.295 35.056 C 58.403 36.549, 57 39.359, 57 47.667 C 57 57.300, 59.164 60.107, 67.081 60.741 C 74.397 61.327, 77.735 59.880, 79.653 55.289 C 81.973 49.736, 81.090 40.635, 77.924 37.470 C 75.103 34.649, 68.306 33.527, 63.295 35.056 M 101.273 35.442 C 99.360 36.297, 97.809 36.500, 97.464 35.942 C 97.144 35.424, 95.334 35, 93.441 35 L 90 35 90 48.057 L 90 61.115 94.250 60.807 L 98.500 60.500 99 51.500 C 99.475 42.941, 99.617 42.483, 101.887 42.163 C 105.292 41.681, 105.967 43.427, 105.985 52.750 L 106 61 110 61 L 114 61 114 50.111 C 114 41.210, 113.680 38.837, 112.250 37.114 C 109.957 34.353, 105.299 33.643, 101.273 35.442 M 66.238 42.162 C 64.945 43.455, 64.561 49.692, 65.607 52.418 C 65.941 53.288, 67.305 54, 68.639 54 C 71.674 54, 72.801 51.249, 72.055 45.660 C 71.631 42.484, 71.024 41.432, 69.488 41.212 C 68.382 41.053, 66.919 41.481, 66.238 42.162 M 57.490 74.910 C 61.125 80.511, 64.336 85.712, 64.626 86.467 C 64.915 87.222, 61.958 92.601, 58.054 98.420 C 50.461 109.737, 50.473 109.885, 58.807 107.859 C 64.747 106.415, 65.402 105.822, 72.353 95.589 L 78.095 87.136 71.485 77.590 C 64.542 67.562, 64.337 67.417, 54.136 65.377 L 50.882 64.726 57.490 74.910 M 77.068 74.904 C 75.931 76.502, 75 78.120, 75 78.500 C 75 79.637, 79.072 85, 79.935 85 C 80.659 85, 81.853 83.371, 87.446 74.750 L 89.230 72 84.183 72 C 79.754 72, 78.883 72.355, 77.068 74.904 M 35.020 76.227 C 33.656 76.949, 31.975 78.656, 31.284 80.020 C 29.669 83.213, 29.663 93.776, 31.276 96.963 C 33.097 100.562, 38.744 102.387, 45.460 101.548 C 50.364 100.936, 51 100.594, 51 98.568 C 51 96.522, 50.401 96.218, 45.344 95.696 C 40.055 95.150, 37.477 93.654, 38.625 91.798 C 38.896 91.359, 41.272 91, 43.904 91 C 49.845 91, 52 88.957, 52 83.326 C 52 80.570, 51.368 78.738, 49.985 77.486 C 47.422 75.167, 38.451 74.413, 35.020 76.227 M 96.354 75.692 C 92.438 76.458, 90.616 79.665, 90.177 86.567 C 89.927 90.491, 90.271 94.240, 91.055 96.133 C 94.087 103.452, 108.876 104.008, 112.530 96.941 C 113.339 95.378, 114 91.580, 114 88.500 C 114 85.420, 113.339 81.622, 112.530 80.059 C 110.364 75.870, 104.096 74.178, 96.354 75.692 M 39.011 82.487 C 36.535 85.471, 39.341 87.958, 43.418 86.393 C 45.464 85.608, 45.464 82.392, 43.418 81.607 C 41.072 80.707, 40.372 80.847, 39.011 82.487 M 99.200 83.200 C 97.646 84.754, 97.646 92.246, 99.200 93.800 C 102.253 96.853, 106 93.933, 106 88.500 C 106 83.067, 102.253 80.147, 99.200 83.200 M 77.068 91.904 C 74.470 95.554, 74.474 95.621, 77.551 99.656 C 79.770 102.565, 80.681 103, 84.551 103 C 86.998 103, 89 102.665, 89 102.256 C 89 101.119, 80.612 89, 79.826 89 C 79.447 89, 78.206 90.307, 77.068 91.904" stroke="none" fill="None" fill-rule="evenodd"/></svg>